<?xml version="1.0" encoding="utf-8"?>
<!-- Generator: Adobe Illustrator 23.0.6, SVG Export Plug-In . SVG Version: 6.00 Build 0)  -->
<svg version="1.1" id="Ebene_1" xmlns="http://www.w3.org/2000/svg" xmlns:xlink="http://www.w3.org/1999/xlink" x="0px" y="0px"
	 viewBox="0 0 396.1 486.3" style="enable-background:new 0 0 396.1 486.3;" xml:space="preserve">
<style type="text/css">
	.st0{fill:#FFFFFF;}
</style>
<title>logo_border_free</title>
<g>
	<path class="st0" d="M294.5,0c0,0-36.1,0.9-69.3,34s-27.5,77.8-27.5,77.8s32.8,6,67.8-29S294.5,0,294.5,0z"/>
	<path class="st0" d="M201.5,140c-24.4-0.2-39.4-21.3-81-21.3c-37.4,0-74.9,24.1-90.9,47.5S0,215,0,266.8s24.9,140.8,86.2,201
		c10.5,10.3,24.4,18.1,40.2,18.5c28.5,0.9,46-20.5,82-20.5s46.8,20.5,79.3,20.5c14.8,0,31.6-6.7,48-24.1
		c21-22.3,47.1-64.9,60.3-105.7c0,0-66.5-25.7-65.7-99.7c0.7-61.3,52.8-91.5,52.8-91.5s-30.4-48.5-95.1-48.5
		C243.4,117.2,223.4,140.1,201.5,140z"/>
</g>
</svg>
